<svg width="40" height="77" viewBox="0 0 40 77" fill="none" xmlns="http://www.w3.org/2000/svg">
<path fill-rule="evenodd" clip-rule="evenodd" d="M16.6862 76.9819L23.2367 61.0389L39.0511 54.4346L32.5005 38.4915L39.0511 22.5474L23.2367 15.9431L16.6862 1.52588e-05L0 6.96843V38.1274L5.06062e-05 38.7414L0 39.3705V70.0135L16.6862 76.9819ZM1.74369 36.3694V8.14308L15.7425 2.29694L21.541 16.4096L1.74369 36.3694ZM22.774 17.6527L36.7728 23.4988L30.9743 37.6125H2.97666L22.774 17.6527ZM2.97777 39.3705H30.9743L36.7728 53.4832L22.774 59.3293L2.97777 39.3705ZM21.541 60.5724L15.7425 74.685L1.74369 68.8389V40.6125L21.541 60.5724Z" fill="#243054"/>
<path d="M27.2102 28.2723C27.2102 29.6248 26.1218 30.7209 24.7804 30.7209C23.44 30.7209 22.3517 29.6248 22.3517 28.2723C22.3517 26.9199 23.44 25.8237 24.7804 25.8237C26.1218 25.8237 27.2102 26.9199 27.2102 28.2723Z" fill="#243054"/>
<path d="M13.4432 13.5798C13.4432 14.9323 12.3559 16.0295 11.0145 16.0295C9.673 16.0295 8.58575 14.9323 8.58575 13.5798C8.58575 12.2273 9.673 11.1312 11.0145 11.1312C12.3559 11.1312 13.4432 12.2273 13.4432 13.5798Z" fill="#243054"/>
<path d="M13.4432 61.8551C13.4432 63.2075 12.3559 64.3037 11.0145 64.3037C9.673 64.3037 8.58575 63.2075 8.58575 61.8551C8.58575 60.5026 9.673 59.4064 11.0145 59.4064C12.3559 59.4064 13.4432 60.5026 13.4432 61.8551Z" fill="#243054"/>
<path d="M27.2102 47.8624C27.2102 49.2149 26.1218 50.311 24.7804 50.311C23.44 50.311 22.3517 49.2149 22.3517 47.8624C22.3517 46.5099 23.44 45.4138 24.7804 45.4138C26.1218 45.4138 27.2102 46.5099 27.2102 47.8624Z" fill="#243054"/>
</svg>
