<svg width="40" height="77" viewBox="0 0 40 77" fill="none" xmlns="http://www.w3.org/2000/svg">
<path fill-rule="evenodd" clip-rule="evenodd" d="M16.6862 76.9819L23.2367 61.0389L39.0511 54.4346L32.5005 38.4915L39.0511 22.5474L23.2367 15.9431L16.6862 1.52588e-05L0 6.96843V38.1274L5.06062e-05 38.7414L0 39.3705V70.0135L16.6862 76.9819ZM1.74369 36.3694V8.14308L15.7425 2.29694L21.541 16.4096L1.74369 36.3694ZM22.774 17.6527L36.7728 23.4988L30.9743 37.6125H2.97666L22.774 17.6527ZM2.97777 39.3705H30.9743L36.7728 53.4832L22.774 59.3293L2.97777 39.3705ZM21.541 60.5724L15.7425 74.685L1.74369 68.8389V40.6125L21.541 60.5724Z" fill="#243054"/>
</svg>
